<svg width="87" height="87" viewBox="0 0 87 87" fill="none" xmlns="http://www.w3.org/2000/svg">
<path d="M86.4882 42.5968C85.2459 39.4513 82.1782 37.7383 78.8583 38.3377L72.036 39.5663C70.9033 39.7701 70.1516 40.8542 70.3534 41.9869C70.557 43.1196 71.6393 43.8724 72.7703 43.6704L79.5926 42.4417C81.216 42.1489 82.2183 43.1214 82.615 44.1269C83.0134 45.1341 82.9438 46.53 81.5605 47.4277L71.5471 53.9261C70.6162 54.529 69.4834 54.5708 68.5142 54.0429C67.5433 53.5148 66.9622 52.5372 66.9622 51.4305V30.3735C66.9622 29.2216 66.0313 28.2877 64.8811 28.2877C63.731 28.2877 62.8001 29.2216 62.8001 30.3735V51.434C62.8001 54.0934 64.1921 56.4391 66.5254 57.7095C67.6094 58.2985 68.777 58.593 69.9393 58.593C71.2808 58.593 72.6172 58.2044 73.8108 57.429L83.8243 50.9303C86.6605 49.09 87.7306 45.7425 86.4882 42.5968ZM51.2656 38.3394L44.4431 39.5681C43.3121 39.7719 42.5604 40.8559 42.7622 41.9886C42.9658 43.1214 44.0481 43.8742 45.1791 43.6721L52.0016 42.4434C53.6268 42.1507 54.6273 43.1231 55.0258 44.1286C55.4225 45.1359 55.3546 46.5318 53.9696 47.4294L43.9559 53.9279C43.0267 54.5308 41.894 54.5725 40.9231 54.0447C39.9521 53.5166 39.3727 52.5389 39.3727 51.4323V35.4343C39.3727 32.7732 37.9807 30.4276 35.6474 29.1572C33.314 27.8886 30.5909 27.9932 28.362 29.4378L3.17393 45.7825C0.339494 47.621 -0.7306 50.9688 0.511754 54.1143C1.75237 57.258 4.81823 58.9695 8.14161 58.3716L30.1333 54.4122C31.2643 54.2084 32.0177 53.1244 31.8142 51.9917C31.6106 50.8589 30.5283 50.1044 29.3973 50.3082L7.40561 54.2676C5.78045 54.5604 4.77995 53.5879 4.38323 52.5824C3.98477 51.5752 4.05263 50.1793 5.43767 49.2801L30.6205 32.9389C31.5479 32.3375 32.6824 32.294 33.6533 32.8221C34.6243 33.3519 35.2037 34.3296 35.2037 35.436V51.434C35.2037 54.0934 36.5957 56.4391 38.929 57.7095C40.013 58.2985 41.1823 58.593 42.3446 58.593C43.6862 58.593 45.0208 58.2044 46.2144 57.429L56.2298 50.9303C59.0626 49.0918 60.1327 45.7442 58.892 42.5985C57.6549 39.4513 54.5855 37.7417 51.2656 38.3394Z" fill="white"/>
</svg>
