<svg width="24" height="25" viewBox="0 0 24 25" fill="none" xmlns="http://www.w3.org/2000/svg">
<path d="M21.396 18.8167C21.7378 18.8165 22.0763 18.8838 22.3921 19.0147C22.7079 19.1455 22.9948 19.3374 23.2365 19.5793C23.4783 19.8212 23.67 20.1084 23.8008 20.4245C23.9317 20.7407 23.999 21.0795 23.999 21.4217C23.999 21.7638 23.9317 22.1026 23.8008 22.4188C23.67 22.7349 23.4783 23.0221 23.2365 23.264C22.9948 23.5059 22.7079 23.6978 22.3921 23.8286C22.0763 23.9595 21.7378 24.0268 21.396 24.0266C20.7059 24.0266 20.0441 23.7522 19.5561 23.2636C19.0682 22.7751 18.794 22.1125 18.794 21.4217C18.794 20.7308 19.0682 20.0682 19.5561 19.5797C20.0441 19.0911 20.7059 18.8167 21.396 18.8167ZM11.829 0.00121403C5.36673 0.0916295 0.0885282 5.37089 0.00122704 11.8416C-0.0215135 13.4335 0.272034 15.0141 0.864807 16.4914C1.45758 17.9688 2.33775 19.3134 3.45416 20.4472C4.57058 21.5809 5.90095 22.4812 7.36797 23.0957C8.83498 23.7102 10.4094 24.0267 11.9996 24.0266H12.1421C12.6705 24.0208 13.1753 23.8065 13.547 23.4304C13.9186 23.0542 14.127 22.5465 14.1269 22.0174C14.127 21.7513 14.0742 21.4879 13.9717 21.2424C13.8692 20.9969 13.7191 20.7743 13.5299 20.5873C13.3408 20.4004 13.1165 20.253 12.87 20.1535C12.6235 20.0541 12.3597 20.0047 12.0939 20.0082C11.9886 20.0082 11.8832 20.0082 11.7768 20.0082C10.2174 19.9638 8.70512 19.463 7.42675 18.5678C6.14838 17.6726 5.15993 16.4221 4.58347 14.9708C4.00701 13.5195 3.86779 11.9309 4.18301 10.4013C4.49823 8.87162 5.25408 7.46791 6.35721 6.36351C7.46034 5.25911 8.86243 4.50239 10.3903 4.18681C11.9182 3.87122 13.5049 4.0106 14.9546 4.58773C16.4042 5.16485 17.6533 6.15445 18.5475 7.43429C19.4417 8.71413 19.9418 10.2282 19.9862 11.7894C19.9862 11.8959 19.9862 12.0014 19.9862 12.1068C19.9828 12.3728 20.0323 12.6368 20.1317 12.8835C20.231 13.1301 20.3783 13.3546 20.565 13.5439C20.7517 13.7331 20.9741 13.8833 21.2192 13.9859C21.4644 14.0884 21.7274 14.1412 21.9931 14.1412C22.5214 14.1412 23.0284 13.9327 23.4041 13.5609C23.7798 13.1891 23.9939 12.6839 24 12.1551C24 12.1089 24 12.0626 24 12.0164C24.0003 10.4241 23.6844 8.84768 23.0708 7.37869C22.4571 5.9097 21.5579 4.57748 20.4254 3.45949C19.2929 2.3415 17.9498 1.46004 16.474 0.866347C14.9982 0.272655 13.4193 -0.0214207 11.829 0.00121403Z" fill="url(#paint0_linear_2_2996)"/>
<defs>
<linearGradient id="paint0_linear_2_2996" x1="19.4935" y1="2.47157" x2="7.47133" y2="23.2702" gradientUnits="userSpaceOnUse">
<stop stop-color="white" stop-opacity="0.9"/>
<stop offset="0.76" stop-color="white"/>
</linearGradient>
</defs>
</svg>
