<svg width="74" height="67" viewBox="0 0 74 67" fill="none" xmlns="http://www.w3.org/2000/svg">
<path d="M32.5124 44.7065C32.3074 44.6879 32.1347 44.8496 32.121 45.053C32.1072 45.2655 32.262 45.4458 32.4714 45.4506C32.6714 45.469 32.8491 45.3117 32.8671 45.1039C32.8671 44.9004 32.7218 44.7109 32.5124 44.7065Z" fill="white"/>
<path d="M47.8585 60.7058L46.5583 60.2083L46.9167 58.8665L47.3122 57.4023C47.3122 57.4023 45.0076 58.6503 41.7615 59.5885C40.8398 59.8528 40.1427 59.9723 40.1427 59.9723V60.9674C40.1427 60.9674 38.4073 61.2687 36.6519 61.2687H36.6318H36.6064H36.5722H36.5522C34.797 61.2687 33.0614 60.9674 33.0614 60.9674V59.9723C33.0614 59.9723 32.3614 59.8528 31.4426 59.5885C28.1964 58.6503 25.8948 57.4023 25.8948 57.4023L26.2845 58.8665L26.6515 60.2083L25.3485 60.7058L23.9033 61.2459C25.562 62.0449 27.8577 63.2104 29.9604 63.7848L29.4653 65.138C29.4653 65.138 32.1311 66.352 36.5722 66.3632V66.3662H36.5865H36.6064H36.6235H36.6348V66.3632C41.0816 66.352 43.7444 65.138 43.7444 65.138L43.2465 63.7848C45.3489 63.2104 47.6508 62.0449 49.3008 61.2459L47.8585 60.7058ZM25.4452 61.337L27.5846 60.6262L26.9531 58.565C27.8947 59.0995 30.0088 59.9013 31.2319 60.2738L30.1994 63.1081C28.3101 62.5878 26.7368 61.9823 25.4452 61.337ZM36.6064 65.6525C34.1226 65.6525 31.2861 65.0812 30.4526 64.7854L31.7213 61.354C32.774 61.661 34.9647 61.9881 36.555 61.9766H36.558H36.6064H36.649H36.6547C38.2452 61.9881 40.43 61.661 41.4885 61.354L42.7543 64.7854C41.9209 65.084 39.0872 65.6525 36.6064 65.6525ZM43.0076 63.1081L41.9778 60.2738C43.2039 59.9013 45.312 59.0995 46.2566 58.565L45.6279 60.6262L47.7645 61.337C46.47 61.9823 44.9051 62.5878 43.0076 63.1081Z" fill="white"/>
<path d="M36.5989 6.1731C39.2474 6.1731 41.366 7.106 42.5366 8.10266C42.5366 8.10266 42.8839 5.87626 44.0715 3.91025L41.9385 4.16784L40.8222 1.64441L38.6778 2.81977L36.5989 0.632812L34.5256 2.81977L32.3785 1.64441L31.2649 4.16784L29.1318 3.91025C30.3193 5.87626 30.6668 8.10266 30.6668 8.10266C31.8401 7.106 33.9531 6.1731 36.5989 6.1731ZM31.1679 5.05233L31.7604 5.11886L32.0167 4.54653L32.7627 2.85005L34.1468 3.61044L34.6823 3.90129L35.1095 3.45287L36.6017 1.87769L38.0968 3.45287L38.524 3.90129L39.0594 3.61044L40.435 2.85005L41.1896 4.54653L41.4402 5.11886L42.0325 5.05233L42.5964 4.97962C42.3372 5.60055 42.1464 6.18824 42.0095 6.6759C40.5173 5.79141 38.5751 5.28859 36.5961 5.28859C34.6254 5.28859 32.6859 5.79141 31.1879 6.6759C31.0486 6.18824 30.8605 5.59757 30.6012 4.97962L31.1679 5.05233Z" fill="white"/>
<path d="M68.1731 34.0661C71.6203 34.0661 72.7722 30.516 72.8207 30.3651L73.2047 29.115L71.9125 29.1556H71.9068C71.4512 29.1556 67.6487 29.0542 64.9524 25.5853L64.6973 25.2633C62.9352 22.9952 61.2647 20.8402 58.2789 19.8569C58.3649 19.7787 58.4881 19.68 58.6572 19.5698C60.2417 18.514 61.1644 17.2321 61.3964 15.7443C61.7346 13.5052 60.3249 11.7213 60.2618 11.6488L59.3019 10.4481L58.7031 11.8722C58.663 11.962 57.6542 14.2418 55.5338 14.2418H55.3762C55.2302 14.233 55.0925 14.2272 54.9551 14.2157C55.0296 13.1976 54.8461 11.6227 53.4365 10.1465C51.7429 8.36842 49.6626 8.10156 48.5739 8.10156C47.9921 8.10156 47.6055 8.17424 47.5651 8.17996L46.1154 8.47009L47.0094 9.66203C47.7114 10.5814 48.3475 12.2783 47.5939 13.1657C47.3532 13.4472 46.8575 13.6763 46.3818 13.9054C45.4047 14.3608 44.0723 14.993 44.0723 16.6057C44.0723 17.6498 44.8718 18.7403 46.3216 19.6685C50.6141 22.4007 53.2616 25.2516 54.4049 28.3985C56.1729 33.2394 53.8662 36.0006 51.6255 37.4537L50.6198 38.1091L51.4994 38.9271C51.6168 39.0315 52.6943 39.9916 54.2845 40.1308C54.5855 40.151 54.8747 40.1686 55.1442 40.1686C56.1642 40.1686 57.0326 40.006 57.7373 39.7886C57.5424 40.1337 57.3046 40.4845 57.0038 40.8384C55.7231 42.3409 54.147 43.0253 51.8805 43.0602L51.038 43.0747L50.9721 43.9301C50.9635 44.1015 50.9006 45.6879 52.3847 47.0366C52.6112 47.2455 52.8862 47.4166 53.1728 47.5587C52.167 48.4752 51.1441 50.0703 50.9465 52.8055C50.7802 55.0882 50.2415 55.9321 50.2358 55.9409L49.3046 57.3795L50.9866 57.4026C53.766 57.4026 55.895 56.6253 57.3705 55.0882C58.2416 54.1773 58.7403 53.1507 59.0355 52.2399C59.5197 52.6576 60.1444 53.0231 60.9581 53.2173C61.2675 53.2897 61.6057 53.3304 61.9696 53.3304C62.7548 53.3304 63.4109 53.1622 63.4854 53.1448L64.56 52.8549L64.0842 51.8397C64.0498 51.7585 63.153 49.7222 64.1185 46.8162C64.534 45.5603 64.7461 44.4349 64.8492 43.559C65.5254 43.9157 66.431 44.2115 67.6029 44.2146C70.2619 44.2146 71.4339 42.2046 71.4884 42.1203L72.0127 41.1982L71.0415 40.7921C67.8724 39.4607 67.1703 35.8847 67.0298 33.947C67.3163 34.0021 67.6431 34.0545 68.0126 34.0661H68.1731ZM70.6861 41.6476C70.6861 41.6476 69.7576 43.2805 67.6286 43.2805H67.6029C65.047 43.266 64.0154 41.6881 64.0154 41.6881C64.0154 41.6881 64.1644 43.7417 63.2418 46.5118C62.1329 49.8499 63.2505 52.237 63.2505 52.237C63.2505 52.237 62.6544 52.3993 61.9668 52.3993C61.7032 52.3993 61.428 52.3732 61.1702 52.3036C59.0355 51.7903 58.5025 49.8239 58.5025 49.8239C58.5025 49.8239 58.7001 56.4686 51.0466 56.4686H50.9866C50.9866 56.4686 51.6599 55.5406 51.8604 52.8694C52.2243 47.9387 55.5225 47.2628 55.5225 47.2628C55.5225 47.2628 53.7631 47.0395 53.0008 46.3463C51.8087 45.2528 51.8919 43.9883 51.8919 43.9883C54.5855 43.9506 56.3478 43.0224 57.6916 41.4475C59.1472 39.742 59.3878 37.9061 59.3878 37.9061C59.3878 37.9061 57.9407 39.2345 55.1414 39.2345C54.895 39.2345 54.6314 39.2228 54.3619 39.1968C53.0381 39.0895 52.1212 38.2367 52.1212 38.2367C55.0352 36.3457 57.0813 33.0451 55.2674 28.0737C53.8148 24.0916 50.3246 21.1157 46.8116 18.8738C45.6425 18.1341 44.992 17.3133 44.992 16.6057C44.992 14.9409 47.3303 14.8885 48.2902 13.7692C49.3961 12.4696 48.7027 10.3611 47.7429 9.09363C47.7429 9.09363 48.0666 9.02686 48.5768 9.02686C49.5881 9.02686 51.3389 9.28494 52.7773 10.7932C54.6886 12.7944 53.8948 14.9726 53.8948 14.9726L54.4078 15.0742C54.7145 15.141 55.0182 15.1525 55.3333 15.1671C55.4021 15.1671 55.4708 15.17 55.5395 15.17C58.3161 15.17 59.5569 12.2317 59.5569 12.2317C59.5569 12.2317 62.5083 15.9066 58.1643 18.7838C57.4164 19.2768 57.0868 19.7324 57.1729 20.2195L57.2417 20.5387L57.5511 20.5938C60.7002 21.4579 62.2933 23.6565 64.2389 26.1566C67.1931 29.959 71.3739 30.0809 71.8895 30.0809H71.9441C71.9441 30.0809 70.9898 33.1292 68.1789 33.1292C68.133 33.1292 68.0929 33.1292 68.0442 33.1263C66.752 33.08 66.09 32.5781 66.09 32.5781C66.09 32.5781 65.583 39.5014 70.6861 41.6476Z" fill="white"/>
<path d="M61.9089 20.8226C63.2721 21.5068 64.0647 22.4231 64.7601 23.2364C65.4433 24.0295 66.0932 24.7937 67.1072 25.1115C67.4686 25.229 67.8511 25.2834 68.2399 25.2834C69.7642 25.2834 71.2948 24.4043 71.8745 23.1875L72.4576 21.9678L71.0458 21.8877C70.9788 21.8847 69.1631 21.7301 67.1408 19.7803C66.3087 18.9817 65.3036 18.5605 64.2195 18.5605C62.8957 18.5605 61.9147 19.1847 61.8055 19.2478L60.5059 20.1097L61.9089 20.8226ZM64.2226 19.4827C64.9027 19.4827 65.6953 19.7001 66.4454 20.4303C68.7985 22.6837 70.988 22.8096 70.988 22.8096C70.5902 23.64 69.4364 24.37 68.2429 24.37C67.9667 24.37 67.6902 24.33 67.4139 24.2412C65.7955 23.7258 65.2155 21.4353 62.3702 20.0095C62.3702 20.0095 63.166 19.4827 64.2226 19.4827Z" fill="white"/>
<path d="M62.6517 32.6652V32.7114C61.8678 26.4303 57.2746 21.894 52.1646 19.134C51.6915 18.8831 51.256 18.6698 50.832 18.465C52.3882 18.7042 54.8938 18.7331 56.8274 17.0664C56.8274 17.0664 53.8689 19.2292 47.8066 17.2654C49.4849 18.3468 52.7454 19.8724 55.7213 22.3438C63.1628 28.8382 57.8379 35.1742 57.8379 35.1742C60.512 32.4027 60.6222 29.4325 59.8355 27.0071C61.2436 29.3343 62.1436 32.1604 62.0042 35.6442C61.7982 40.6362 59.037 44.9532 56.1306 48.4227C54.7341 50.1068 54.4207 52.1747 54.4207 52.1747C54.4207 52.1747 54.9838 50.349 56.601 48.4716C59.7164 44.8495 62.3787 41.086 62.7271 35.6645C63.0495 36.6479 64.3763 39.3847 66.4813 40.414C66.487 40.4172 63.842 38.8338 62.6517 32.6652Z" fill="white"/>
<path d="M22.973 55.9436C22.9702 55.9349 22.4374 55.0909 22.2656 52.8081C22.0651 50.0728 21.045 48.4776 20.0367 47.561C20.3289 47.4218 20.5981 47.2507 20.8245 47.0389C22.3057 45.6901 22.2425 44.1034 22.2339 43.9322L22.1767 43.0766L21.3286 43.062C19.0684 43.0245 17.4897 42.3399 16.2092 40.8403C15.9112 40.4864 15.6707 40.1356 15.4758 39.7903C16.1804 40.0079 17.0428 40.1702 18.0656 40.1702C18.3407 40.1702 18.6243 40.1529 18.9251 40.1327C20.515 39.9935 21.5923 39.0362 21.7125 38.9289L22.592 38.1108L21.5865 37.4554C19.3376 35.9993 17.0399 33.238 18.8047 28.3997C19.9477 25.2526 22.592 22.4015 26.8893 19.6691C28.339 18.7409 29.1324 17.6503 29.1324 16.6062C29.1324 14.9934 27.8032 14.3582 26.8263 13.9057C26.3507 13.6766 25.8552 13.4475 25.6146 13.166C24.8582 12.2814 25.497 10.5816 26.196 9.66212L27.0956 8.46991L25.6403 8.17996C25.5973 8.17404 25.2163 8.10156 24.6319 8.10156C23.5431 8.10156 21.4691 8.36842 19.773 10.1464C18.3607 11.6257 18.1746 13.2008 18.2461 14.216C18.1086 14.2276 17.9711 14.2334 17.8278 14.2422H17.6732C15.5475 14.2422 14.542 11.9622 14.5019 11.8724L13.9029 10.4482L12.9346 11.649C12.8803 11.7215 11.4651 13.5082 11.8088 15.7448C12.038 17.2326 12.9604 18.5147 14.5446 19.5704C14.7165 19.6807 14.8369 19.7794 14.9229 19.8575C11.9406 20.8409 10.2732 22.999 8.51129 25.2672L8.2563 25.5892C5.56348 29.0583 1.75314 29.1597 1.29764 29.1597L0 29.119L0.395224 30.3693C0.441088 30.5202 1.58989 34.0705 5.03907 34.0705L5.20532 34.0646C5.5691 34.0529 5.8958 34.0037 6.18805 33.9457C6.04464 35.8804 5.34275 39.4568 2.1714 40.791L1.20309 41.1971L1.72749 42.1196C1.77898 42.2037 2.95361 44.2136 5.61778 44.2136C6.78098 44.2108 7.68621 43.9149 8.36526 43.5581C8.46842 44.4342 8.68035 45.5596 9.09579 46.8155C10.0613 49.7219 9.1617 51.7581 9.12724 51.8393L8.6517 52.8544L9.72898 53.1445C9.8005 53.162 10.4623 53.3302 11.2444 53.3302C11.6111 53.3302 11.9492 53.2895 12.253 53.2171C13.0694 53.0227 13.6996 52.6572 14.1779 52.2396C14.4702 53.1503 14.9716 54.1771 15.8397 55.088C17.3178 56.6252 19.4435 57.4026 22.2226 57.4026L23.907 57.3794L22.973 55.9436ZM22.1594 56.4743C14.5074 56.4743 14.7024 49.8293 14.7024 49.8293C14.7024 49.8293 14.1695 51.7957 12.0352 52.309C11.7802 52.3787 11.508 52.4048 11.2416 52.4048C10.5541 52.4048 9.96095 52.2425 9.96095 52.2425C9.96095 52.2425 11.0725 49.8552 9.96375 46.5168C9.04713 43.7467 9.19615 41.693 9.19615 41.693C9.19615 41.693 8.16756 43.2709 5.60936 43.2855H5.58351C3.45499 43.2855 2.52675 41.6524 2.52675 41.6524C7.62611 39.5088 7.12473 32.5881 7.12473 32.5881C7.12473 32.5881 6.46308 33.0871 5.16807 33.1363C5.1222 33.1395 5.07933 33.1395 5.03346 33.1395C2.22007 33.1395 1.26899 30.0908 1.26899 30.0908H1.32628C1.84488 30.0908 6.01899 29.9691 8.9726 26.1663C10.9178 23.6662 12.5135 21.4704 15.6562 20.603L15.9713 20.5479L16.0402 20.2289C16.1262 19.7416 15.7995 19.2862 15.0519 18.7931C10.7087 15.9127 13.6595 12.2407 13.6595 12.2407C13.6595 12.2407 14.8943 15.176 17.676 15.176C17.7447 15.176 17.8079 15.1731 17.8794 15.1731C18.1916 15.1558 18.5011 15.1441 18.8047 15.0775L19.3176 14.9759C19.3176 14.9759 18.5239 12.7976 20.4377 10.7964C21.8759 9.28501 23.6263 9.02977 24.6346 9.02977C25.1475 9.02977 25.4655 9.09654 25.4655 9.09654C24.5087 10.367 23.8154 12.4727 24.9211 13.7723C25.878 14.8889 28.2129 14.944 28.2129 16.609C28.2129 17.3139 27.5626 18.1375 26.3939 18.8772C22.8785 21.1194 19.3893 24.0954 17.9395 28.0778C16.129 33.0493 18.1716 36.3474 21.0909 38.2413C21.0909 38.2413 20.1742 39.0942 18.8478 39.2015C18.5784 39.2275 18.3178 39.2392 18.0656 39.2392C15.2695 39.2392 13.8228 37.9107 13.8228 37.9107C13.8228 37.9107 14.0633 39.7467 15.5102 41.4523C16.8624 43.0274 18.6243 43.9556 21.3173 43.9933C21.3173 43.9933 21.4033 45.2578 20.2114 46.3514C19.4466 47.0418 17.6873 47.268 17.6873 47.268C17.6873 47.268 20.9878 47.9439 21.3487 52.8749C21.5464 55.5462 22.2139 56.4743 22.2139 56.4743H22.1594Z" fill="white"/>
<path d="M4.9598 25.2834C5.35162 25.2834 5.7343 25.229 6.09556 25.1116C7.1162 24.7936 7.76309 24.0288 8.44649 23.2353C9.14518 22.4219 9.93181 21.5054 11.2954 20.8208L12.6988 20.1104L11.3957 19.2481C11.2863 19.1822 10.3083 18.5605 8.98718 18.5605C7.89985 18.5605 6.89151 18.9789 6.06222 19.7809C4.0394 21.7288 2.22617 21.8862 2.15928 21.8891L0.747025 21.9664L1.32721 23.1896C1.91018 24.4012 3.43797 25.2834 4.9598 25.2834ZM6.75774 20.4281C7.511 19.6978 8.30378 19.4801 8.98718 19.4801C10.038 19.4801 10.8337 20.0071 10.8337 20.0071C7.99095 21.4366 7.40779 23.7252 5.78275 24.2408C5.51557 24.3297 5.2361 24.3699 4.9598 24.3699C3.76606 24.3699 2.61184 23.6421 2.21705 22.8085C2.21705 22.8058 4.40382 22.6797 6.75774 20.4281Z" fill="white"/>
<path d="M11.2036 35.6458C11.0584 32.1619 11.9586 29.3354 13.3695 27.008C12.5826 29.4335 12.6901 32.4042 15.3671 35.1759C15.3671 35.1759 10.0422 28.8395 17.4864 22.3443C20.4654 19.8727 23.723 18.3469 25.3983 17.2654C19.3389 19.2294 16.3802 17.0664 16.3802 17.0664C18.3138 18.7335 20.8196 18.7045 22.3759 18.4622C21.9548 18.6671 21.5134 18.8805 21.0459 19.1314C15.9303 21.8915 11.34 26.4283 10.5532 32.7099V32.6608C9.36577 38.8298 6.72363 40.4133 6.72363 40.4133C8.82576 39.3837 10.1498 36.6496 10.4719 35.663C10.8233 41.0852 13.4856 44.8492 16.6009 48.4714C18.2181 50.3491 18.7872 52.1747 18.7872 52.1747C18.7872 52.1747 18.4708 50.1068 17.0685 48.4225C14.1679 44.9588 11.4068 40.6382 11.2036 35.6458Z" fill="white"/>
<path d="M35.1084 23.041V24.2362C35.5505 23.7354 36.4049 23.8377 36.4049 23.8377V25.5612C36.4049 25.5612 36.3751 26.4078 36.0518 26.7759H36.9773H37.8999C37.5826 26.4109 37.5498 25.5612 37.5498 25.5612V23.8377C37.5498 23.8377 38.4042 23.7354 38.8433 24.2362V23.041H36.9773H35.1084Z" fill="white"/>
<path d="M33.8957 15.6201C34.505 16.1152 34.8571 16.1969 34.8694 16.2061L35.1081 16.3191V15.0434L32.8672 14.0781C32.8672 14.0812 32.8885 14.8177 33.8957 15.6201Z" fill="white"/>
<path d="M39.3059 15.6201C40.3193 14.8177 40.3376 14.0781 40.3376 14.0781L38.0967 15.0434V16.3191L38.3323 16.2061C38.3477 16.1969 38.6967 16.1152 39.3059 15.6201Z" fill="white"/>
<path d="M43.0102 10.7371C43.0102 8.95694 39.9684 7.35547 36.6105 7.35547H36.6076H36.5989H36.5901C33.2322 7.35547 30.1904 8.95694 30.1904 10.7371L30.2579 11.1757L31.5985 18.761L30.2521 19.5313L26.7681 21.5366H26.78C26.78 21.5366 25.9954 21.9319 25.6322 22.177C24.3062 23.086 24.0252 24.4103 24.795 24.9585C24.9854 23.8795 25.8519 22.7483 27.4737 22.7483C28.6419 22.7483 29.5318 23.3429 30.2521 24.2342C30.4364 24.4594 30.6121 24.6988 30.776 24.9585C30.9779 25.2846 31.1799 25.5702 31.382 25.8471H22.4092C23.0679 27.1541 23.6943 28.5391 23.6943 30.0423V49.6158C23.6943 54.3534 27.3918 56.6156 31.3907 56.6156C34.4823 56.6156 34.8981 56.4771 36.6049 58.1505C38.3028 56.4743 38.7185 56.6156 41.8129 56.6156C45.8148 56.6156 49.5065 54.3534 49.5065 49.6158V30.0423C49.5065 28.5391 50.133 27.1541 50.7946 25.8471H41.8187C42.0178 25.5732 42.2198 25.2846 42.4217 24.9585C42.5887 24.6988 42.7613 24.4594 42.9429 24.2342C43.6688 23.3399 44.5559 22.7483 45.724 22.7483C47.3458 22.7483 48.2095 23.8766 48.4027 24.9585C49.1728 24.4103 48.8946 23.086 47.5596 22.177C47.2024 21.9319 46.4177 21.5366 46.4177 21.5366H46.4296L42.9458 19.5313L41.605 18.761L42.9458 11.1757L43.0102 10.7371ZM31.5107 11.62L36.2242 13.1953V20.492L32.7551 18.6889L31.5107 11.62ZM32.4857 27.1195C33.2587 27.8784 34.0169 28.3488 34.7369 28.6083C34.6432 28.9747 34.5205 29.7307 34.8687 30.4839C35.1527 31.0896 35.6679 31.557 36.4085 31.8687C36.4906 32.6189 36.9707 33.747 38.3028 34.2462C37.7202 34.8262 37.1521 35.3713 36.9209 35.5935L31.5195 35.5098C31.3967 35.4494 31.1887 35.3136 31.0953 35.1204C31.0834 35.0945 31.0659 35.0801 31.0572 35.0513L31.9381 35.1926C31.9588 35.1955 31.9762 35.1955 31.9938 35.1955C32.1637 35.1955 32.3129 35.0801 32.3423 34.9069C32.3715 34.7137 32.2398 34.5376 32.0496 34.5088L30.9663 34.3413L32.1695 30.2472L31.0307 27.884L29.204 29.7884L29.0926 34.0471L27.8661 33.8565C27.6757 33.8192 27.4942 33.9577 27.4621 34.1451C27.4327 34.3327 27.5615 34.5088 27.7547 34.5432L28.27 34.6213C28.0856 34.7251 27.9657 34.8059 27.9509 34.8175L27.8454 34.8895L27.8162 35.0165C27.5177 36.211 28.1939 37.3449 28.923 37.8526L28.8965 38.0027C28.8673 38.1874 28.9083 38.3662 29.0195 38.5164C29.1249 38.6693 29.2888 38.7616 29.4703 38.7935C29.5085 38.7991 29.5493 38.8019 29.5846 38.8019C29.9006 38.8019 30.176 38.5857 30.255 38.2711C30.5272 38.3029 30.776 38.3085 30.9458 38.3085H31.0893L38.1769 39.5694L38.2968 39.4915C38.8618 39.1022 41.0136 37.5555 41.7192 37.0449C41.9123 37.2094 42.1289 37.3594 42.3924 37.4834C42.1641 38.2394 42.1495 39.4021 43.0542 40.3196H24.9912V30.0453C24.9912 29.0499 24.6956 28.0486 24.3472 27.1253H32.4857V27.1195ZM41.2448 36.5197C40.5277 37.039 38.6833 38.3662 38.0158 38.8279L31.5752 37.6883C31.59 37.6306 31.6045 37.5758 31.6192 37.5181C31.704 37.1892 31.7889 36.739 31.7949 36.211L37.2078 36.2977L37.3103 36.1938C37.3923 36.1128 39.1079 34.4799 39.9832 33.5394C40.191 33.7961 40.4514 34.0414 40.791 34.2576C40.674 34.8808 40.7238 35.7695 41.2448 36.5197ZM30.4628 35.4205C30.615 35.735 30.8901 35.9455 31.0805 36.0639C31.0746 36.3582 31.0453 36.817 30.9663 37.2207C30.9487 37.3104 30.9254 37.3941 30.8989 37.4778C30.8844 37.5296 30.8697 37.5728 30.8579 37.6075C30.574 37.6075 30.0148 37.5728 29.5581 37.4084C29.0518 37.2239 28.2965 36.309 28.472 35.3023C28.6916 35.1694 29.1981 34.8895 29.6724 34.8895C30.0384 34.8867 30.2871 35.0569 30.4628 35.4205ZM29.7924 34.1539L29.9006 30.0654L30.8316 29.0931L31.4172 30.2992L30.2637 34.2232L29.7924 34.1539ZM41.1864 55.3488C40.835 55.3488 40.51 55.3547 40.2173 55.3662L40.9844 53.0148C41.1045 52.6888 40.4983 52.2704 40.2494 51.904C40.6271 52.1376 41.605 52.6484 42.0764 52.8532C42.0266 52.9282 41.1864 55.3488 41.1864 55.3488ZM43.5927 52.6772L43.0922 55.2508C42.7732 55.294 42.4335 55.3173 42.0851 55.3316L42.6121 52.856C42.7701 52.1204 40.7649 51.8925 39.7754 50.4469C39.2922 50.9835 38.3818 51.1422 37.4684 51.1422C36.6341 51.1422 35.7998 51.0096 35.2932 50.9115C35.1644 50.8912 35.0414 50.8767 34.9214 50.8767C34.6287 50.8767 34.3622 50.9663 34.1778 51.272L34.0314 51.5145L31.3001 50.8797L30.6209 51.9876C30.5243 52.1665 30.5183 52.3194 30.6736 52.4868L30.8579 52.6858C30.7321 53.0782 30.1643 53.6696 30.1643 53.6696L29.7574 53.1706C29.4351 52.8157 29.4879 52.1693 29.8246 51.5693L30.9077 49.7659L33.2206 50.095L32.8605 49.287C32.3774 48.2195 33.1122 46.8605 33.1912 46.0786C33.1649 46.3152 32.9452 46.3672 32.6877 46.3672C32.4536 46.3672 32.193 46.324 32.0202 46.324C31.9529 46.324 31.8943 46.3297 31.8622 46.3528L31.2356 46.7277L30.7409 46.298C30.6823 46.2143 30.6619 46.0209 30.8082 45.8766L31.9529 44.613L30.6005 43.0578L32.4945 43.9955L33.0711 43.3058C33.2294 43.4587 33.162 43.8599 33.162 43.8599C33.7534 43.8744 35.4102 44.7773 35.4982 46.8837C35.504 46.9471 35.504 47.0191 35.504 47.0884C35.504 47.0884 35.5187 47.1144 35.548 47.1576C35.665 47.3163 35.987 47.7232 36.3968 47.7607L39.0141 48.0145H39.0257C39.3128 48.0145 39.8836 47.6829 40.6154 47.6829C41.0136 47.6829 41.4585 47.7839 41.9329 48.0781C41.9329 48.0781 42.1699 47.8935 42.5564 47.8732C42.5856 47.8704 42.618 47.8704 42.6473 47.8704C43.8212 47.8704 44.3071 48.9148 44.9366 49.7832C45.4109 50.4439 46.0432 51.4249 46.0432 51.4249C45.809 51.699 45.5922 51.8492 45.2293 51.8492C45.1299 51.8492 45.0156 51.8404 44.8926 51.8173C43.6337 51.5894 43.4524 49.0389 42.7351 48.837C42.697 48.8254 42.6561 48.8225 42.6208 48.8225C42.3896 48.8225 42.2872 49.0244 42.2872 49.0244C42.6149 49.893 42.4247 50.2448 42.776 50.9143C43.0394 51.4104 43.5078 51.8203 43.701 52.0135C43.701 52.0194 43.6484 52.3945 43.5927 52.6772ZM29.5377 50.242L29.6577 50.5392C29.5786 50.7989 28.6712 51.1682 28.6712 51.1682L28.4749 50.747C28.2671 50.2969 28.3109 49.538 28.9434 49.0735L30.413 48.1906L31.9705 48.5167C31.9412 49.0043 32.2368 49.3678 32.2368 49.3678L30.6033 49.0591L29.6255 49.7255C29.4616 49.8381 29.4499 50.0487 29.5377 50.242ZM43.8387 55.1095L44.2867 52.8071C44.31 52.6713 44.3392 52.5128 44.3598 52.3801C44.4857 52.432 44.6204 52.4752 44.7667 52.5011C44.9335 52.5328 45.0886 52.5473 45.2293 52.5473C45.9145 52.5473 46.3125 52.1924 46.5789 51.8896L46.9243 51.4941L46.6433 51.0614C46.617 51.0181 45.9964 50.0487 45.5162 49.3851C45.4225 49.2553 45.3316 49.1253 45.241 48.9839C44.6965 48.182 44.0144 47.175 42.6473 47.175L42.5243 47.1779C42.2988 47.1923 42.1056 47.2357 41.9505 47.2934C41.52 47.0943 41.078 46.9932 40.6183 46.9932C40.0534 46.9932 39.5761 47.1461 39.26 47.2529C39.1692 47.2789 39.0873 47.3077 39.023 47.3194L36.4671 47.0712C36.435 47.0653 36.3295 47.0048 36.2036 46.8547V46.8433L36.7569 46.6239C36.6017 44.8092 34.8336 43.6925 33.847 43.3145C33.8032 43.1327 33.7153 42.951 33.5602 42.8039L33.0098 42.2903L32.5266 42.8616L32.2896 43.1529L28.7122 41.7045L31.0395 44.5842L30.1203 45.9546C29.7835 46.3064 30.1554 46.6585 30.1554 46.6585L31.1038 47.3018L32.0876 46.9413C32.1226 46.9413 32.152 46.95 32.1841 46.9528C32.1374 47.1001 32.0759 47.677 32.0348 47.8387L30.3281 47.5068L28.5335 48.505C27.6113 49.1717 27.4854 50.2767 27.8281 51.0326L28.027 51.4625L28.3109 52.0683L28.9375 51.8116C28.9463 51.8088 28.9551 51.806 28.9608 51.8001C28.7355 52.5099 28.8264 53.185 29.2302 53.6294L29.6108 54.1024L30.1174 54.7343L30.6736 54.1458C30.8375 53.9842 31.3674 53.3985 31.5314 52.8964L31.6513 52.5128L31.3792 52.2184L31.3352 52.1665L31.6398 51.6702L33.8674 52.1867L34.3681 52.2992L34.6345 51.8665L34.7809 51.6299C34.8073 51.5809 34.8159 51.5722 34.9185 51.5722C34.9975 51.5722 35.0765 51.5809 35.1615 51.5982C36.0016 51.754 36.7773 51.8318 37.4654 51.8318C38.1329 51.8318 38.531 51.806 39.0082 51.65C39.0082 51.65 40.2056 52.9888 40.2465 53.0409L39.5148 55.268L39.4824 55.4038C38.0948 55.5134 37.4187 55.8134 36.6018 56.6185C35.4162 55.4586 34.5759 55.3373 31.388 55.3373C27.5732 55.3373 24.9883 53.133 24.9883 49.613V41.0063H48.2095L48.2155 49.613C48.2182 52.4694 46.5174 54.4604 43.8387 55.1095ZM48.8594 27.1195C48.5053 28.0429 48.2095 29.044 48.2095 30.0394L48.2126 36.462C46.8511 36.237 46.6902 34.7915 46.6843 34.7281L46.6579 34.4337L46.3652 34.4078C45.7738 34.3529 45.3815 34.1048 45.0507 33.7874C44.3832 33.1296 44.3802 32.0619 44.3832 32.0534C44.3746 32.1083 43.6484 33.1094 44.4916 34.2028C44.8457 34.6645 45.3581 34.9472 46.0227 35.0597C46.1778 35.8618 46.7838 36.993 48.2126 37.1659V40.311H44.1958C42.3427 39.2953 43.1272 37.5066 43.1653 37.4314L43.3235 37.091L42.9692 36.9584C40.9638 36.2253 41.5143 34.252 41.5435 34.1684L41.6254 33.8798L41.3532 33.7528C39.6961 32.9969 39.9217 30.957 39.9422 30.8734C39.4327 31.2802 39.2483 32.1111 39.5996 32.9247C39.4093 33.1383 39.1548 33.398 38.8765 33.6807C37.161 33.2508 37.1084 31.6955 37.1084 31.6235L37.1052 31.384L36.8799 31.2974C36.2095 31.0522 35.7498 30.6856 35.5244 30.1924C35.2699 29.647 35.3604 29.0757 35.4309 28.8018C35.627 28.845 35.823 28.8767 36.0104 28.891C36.2036 28.9114 36.4027 28.9229 36.6018 28.9229H36.6135H36.6282C36.8273 28.9229 37.0235 28.9114 37.2167 28.891C38.2851 28.7873 39.4825 28.3343 40.7297 27.1168H48.8594V27.1195ZM42.6004 20.6278L44.187 21.5366H44.2105L44.6087 21.7645C43.7128 22.0099 43.0278 22.4512 42.4541 23.0312C42.4335 23.0485 42.4131 23.0715 42.3924 23.0919C42.2608 23.2304 42.1289 23.3802 42.0061 23.5332C41.9827 23.562 41.9592 23.5937 41.9329 23.6256C41.8099 23.7813 41.6959 23.94 41.5844 24.1074C41.5669 24.1362 41.5464 24.165 41.526 24.191C41.3942 24.3843 41.2684 24.5921 41.1425 24.8057C40.0124 26.7243 38.209 27.8697 36.6049 27.8727C35.0035 27.8697 33.2001 26.7243 32.07 24.8057C31.947 24.5979 31.8241 24.396 31.6923 24.1998C31.666 24.1622 31.6425 24.1246 31.6192 24.0929C31.5079 23.9343 31.3967 23.7786 31.2825 23.6313C31.2533 23.5909 31.2268 23.5591 31.1976 23.5247C31.0746 23.3773 30.9487 23.2304 30.8228 23.0946C30.7966 23.0744 30.7789 23.0485 30.7526 23.0254C30.176 22.4455 29.4937 22.0068 28.595 21.7645L28.999 21.5366H29.0165L30.6033 20.6278L32.2339 19.7073L36.5901 22.0444L36.5989 22.0356L36.6105 22.0444L40.9667 19.7073L42.6004 20.6278ZM40.4514 18.6918L36.9795 20.4949V13.1953L41.6899 11.62L40.4514 18.6918ZM36.6018 12.3933L31.4376 10.3821C31.8768 9.35787 33.9026 8.48656 36.6018 8.48371C39.304 8.48656 41.3298 9.35787 41.766 10.3821L36.6018 12.3933Z" fill="white"/>
</svg>
