<svg width="101" height="21" viewBox="0 0 101 21" fill="none" xmlns="http://www.w3.org/2000/svg">
<path d="M27.7051 20.588C25.133 20.6716 22.628 19.7576 20.7128 18.0369C19.6868 17.1014 18.8823 15.9484 18.3581 14.662C17.8339 13.3756 17.6032 11.9883 17.6828 10.6013C17.6222 8.25009 18.4205 5.95751 19.9281 4.15353C21.3371 2.53046 23.2544 1.43372 25.3665 1.04242C27.9588 0.437153 30.6837 0.834365 32.9959 2.15464C34.3897 2.92363 35.5552 4.0483 36.374 5.41446C37.1928 6.78055 37.6356 8.33938 37.6575 9.93242C37.8129 12.9424 37.0981 15.6491 34.8761 17.7958C32.9641 19.6098 30.4165 20.5986 27.7828 20.5491L27.7051 20.588ZM27.8372 5.58464C26.8182 5.52771 25.8109 5.82474 24.9855 6.42565C24.1602 7.02656 23.5675 7.89441 23.3077 8.88242C22.9281 10.0846 22.9281 11.3747 23.3077 12.5769C23.5387 13.3942 23.9999 14.1277 24.6362 14.6898C25.2723 15.2518 26.0567 15.6188 26.8955 15.7466C27.7343 15.8746 28.5922 15.7581 29.3668 15.4112C30.1413 15.0643 30.7996 14.5016 31.2634 13.7902C31.8054 12.9401 32.1144 11.9621 32.1594 10.9546C32.2045 9.94704 31.9838 8.94534 31.5198 8.0502C31.1946 7.31364 30.6586 6.6901 29.9797 6.2582C29.3008 5.82638 28.5093 5.60549 27.7051 5.62353L27.8372 5.58464ZM69.9231 12.5458C68.9597 12.6002 68.0507 12.6702 67.0407 12.7246V20.1291H61.6022V1.36909H66.9319V8.29909C68.0919 8.39965 69.2604 8.305 70.3892 8.01909C71.0558 7.82441 71.6618 7.46204 72.1482 6.96636C72.6353 6.47076 72.9873 5.8585 73.1706 5.18798C73.528 3.95131 73.6756 2.6602 73.9475 1.29909H78.8965C78.9975 5.18798 78.2362 8.57909 74.5536 10.6791C74.7089 10.9591 74.8099 11.1846 74.9575 11.4102C76.5114 13.938 77.9875 16.4658 79.5025 19.0169C79.6781 19.3699 79.8312 19.7336 79.9609 20.1058H74.2816C72.8132 17.6246 71.3526 15.0735 69.8842 12.5224L69.9231 12.5458ZM93.9688 8.88242C94.0069 8.34381 94.0069 7.80325 93.9688 7.26464C93.8935 6.84651 93.6985 6.45925 93.4071 6.14993C93.1166 5.84069 92.7421 5.62268 92.3295 5.52242C90.9062 5.05326 89.3959 4.90712 87.9088 5.09464C86.5135 5.18556 85.1492 5.54746 83.8922 6.1602C83.6668 4.82242 83.4338 3.55464 83.1852 2.27131C84.2721 1.74569 85.4281 1.37896 86.6192 1.18242C89.096 0.672587 91.6544 0.707119 94.1165 1.28353C96.7425 1.94464 98.5838 3.46131 99.0888 6.23798C99.1937 6.93276 99.2348 7.63564 99.2131 8.33798V15.338C99.3141 16.7769 99.4384 16.8935 100.907 17.158V20.1446C99.4563 20.6218 97.8845 20.5778 96.4628 20.0202C96.0875 19.8265 95.7635 19.5465 95.518 19.203C95.2725 18.8595 95.1117 18.4625 95.0488 18.0446C95.006 17.845 94.9796 17.6421 94.9711 17.438C93.1764 20.0202 90.6281 20.6502 87.8001 20.4946C84.6458 20.3158 82.2218 18.1613 81.7634 15.688C81.0331 11.6202 83.0997 8.58686 87.2019 7.94909C89.8512 7.56798 90.5892 7.74686 93.9455 8.88242H93.9688ZM93.93 12.4446C93.0793 11.8694 92.0996 11.514 91.0787 11.4102C90.5613 11.305 90.0275 11.3067 89.5109 11.415C88.9934 11.5234 88.504 11.7361 88.072 12.0402C87.6602 12.3484 87.3572 12.7798 87.2057 13.272C87.055 13.7641 87.0643 14.2916 87.2329 14.778C87.3743 15.2105 87.6431 15.5904 88.0029 15.8679C88.3633 16.1453 88.7992 16.3076 89.2529 16.3335C90.1736 16.4273 91.1036 16.2882 91.9566 15.9291C92.6574 15.6947 93.2463 15.2092 93.6107 14.5658C93.9751 13.9224 94.0893 13.1669 93.93 12.4446ZM52.1005 1.34575H57.3525V20.1524H52.0538V14.1402C51.0672 14.3658 50.1815 14.6224 49.2492 14.7469C46.8252 15.0735 44.5255 14.7469 42.5832 13.1913C41.1495 11.9572 40.1997 10.254 39.9028 8.38464C39.4444 6.05131 39.7241 3.71798 39.6464 1.38464H45.1237V2.21686C45.1237 3.77242 45.1237 5.2502 45.2014 6.7902C45.2163 7.24582 45.3217 7.6939 45.5111 8.10845C45.7007 8.52293 45.9707 8.89556 46.3055 9.20465C46.6402 9.51366 47.033 9.75299 47.461 9.9087C47.889 10.0643 48.3437 10.1332 48.7985 10.1113C49.9829 10.148 51.1464 9.79265 52.1082 9.1002L52.1005 1.34575ZM10.807 20.0824H5.53169V6.15242H0V1.36909H16.3154V6.09798H10.807V20.0824Z" fill="white"/>
</svg>
