<svg width="33" height="19" viewBox="0 0 33 19" fill="none" xmlns="http://www.w3.org/2000/svg">
<path d="M23.6566 10.0246C23.2931 9.5656 23.3971 9.36138 23.6566 8.95106C23.6613 8.94637 26.6619 4.80004 26.9711 3.39388L26.9729 3.39294C27.1266 2.88051 26.9729 2.50391 26.2301 2.50391H23.7719C23.1461 2.50391 22.8575 2.82711 22.703 3.18872C22.703 3.18872 21.4514 6.18465 19.6808 8.12666C19.1093 8.68781 18.8452 8.86768 18.5332 8.86768C18.3796 8.86768 18.1407 8.68781 18.1407 8.17537V3.39294C18.1407 2.77839 17.9655 2.50391 17.4474 2.50391H13.5821C13.1896 2.50391 12.9564 2.79057 12.9564 3.05756C12.9564 3.64026 13.8416 3.77422 13.9334 5.41365V8.97073C13.9334 9.75016 13.792 9.89349 13.4782 9.89349C12.6425 9.89349 10.6143 6.88538 9.41239 3.44259C9.16975 2.77465 8.93274 2.50484 8.30227 2.50484H5.84313C5.14146 2.50484 5 2.82804 5 3.18965C5 3.82856 5.83564 7.00529 8.8859 11.2022C10.9188 14.067 13.7817 15.6193 16.386 15.6193C17.9514 15.6193 18.1426 15.2745 18.1426 14.6815C18.1426 11.9442 18.0011 11.6856 18.7852 11.6856C19.1487 11.6856 19.7745 11.8655 21.2359 13.2473C22.9062 14.8858 23.1807 15.6193 24.1157 15.6193H26.5739C27.2746 15.6193 27.6297 15.2745 27.4254 14.5944C26.958 13.1639 23.799 10.2214 23.6566 10.0246Z" fill="white"/>
</svg>
